<svg width="24" height="24" viewBox="0 0 24 24" fill="none" xmlns="http://www.w3.org/2000/svg">
<path d="M21.5409 0.22168H2.45091C1.53895 0.22168 0.799805 0.944865 0.799805 1.83701V21.0053C0.799805 21.8974 1.54005 22.6217 2.45091 22.6217H21.5409C22.454 22.6217 23.1976 21.8974 23.1976 21.0053V1.83701C23.1976 0.944865 22.454 0.22168 21.5409 0.22168ZM7.44275 19.3089H4.11742V8.6192H7.44275V19.3089ZM5.7812 7.15632C5.2703 7.15632 4.78035 6.95338 4.4191 6.59213C4.05785 6.23088 3.85491 5.74091 3.85491 5.23003C3.85491 4.71915 4.05785 4.22918 4.4191 3.86794C4.78035 3.50669 5.2703 3.30374 5.7812 3.30374C6.29208 3.30374 6.78203 3.50669 7.14328 3.86794C7.50453 4.22918 7.70748 4.71915 7.70748 5.23003C7.70748 5.74091 7.50453 6.23088 7.14328 6.59213C6.78203 6.95338 6.29208 7.15632 5.7812 7.15632ZM19.886 19.3069H16.564V14.1102C16.564 12.8708 16.5432 11.2764 14.8381 11.2764C13.1094 11.2764 12.8457 12.627 12.8457 14.0216V19.3089H9.52701V8.6192H12.712V10.0804H12.7577C13.198 9.24002 14.2844 8.35392 15.9008 8.35392C19.2646 8.35392 19.886 10.5675 19.886 13.4465V19.3069Z" fill="black"/>
</svg>
